<svg width="280" height="89" viewBox="0 0 280 89" fill="none" xmlns="http://www.w3.org/2000/svg">
<path d="M170.133 76.9738C168.479 76.546 166.844 75.8534 165.182 75.7312C150.49 74.7127 135.754 74.2339 121.106 72.7163C109.632 71.5246 98.2283 69.2941 86.8425 67.1551C73.777 64.7005 60.632 62.5208 47.7787 58.9865C36.0569 55.7577 24.2025 52.4475 13.5327 45.4502C12.2156 44.5844 10.9161 43.6881 9.65198 42.7307C2.77451 37.4954 4.49829 31.0481 9.51938 26.2304C15.9991 20.0174 23.9904 17.4812 32.0259 15.2608C47.3013 11.0339 62.8331 8.85426 78.4799 7.51998C105.079 5.25883 131.67 4.96346 158.313 6.532C181.598 7.89683 204.644 11.2376 227.495 16.3609C239.385 19.0294 251.168 22.4211 262.068 28.7055C265.684 30.7935 269.06 33.7065 272.075 36.8436C275.805 40.7344 275.54 45.715 272.084 50.0132C266.311 57.1939 258.673 60.8708 251.151 64.6597C237.148 71.708 222.5 76.5257 207.579 80.1109C199.03 82.1581 190.341 83.4007 181.731 85.0711C179.635 85.4786 177.576 86.1202 175.339 86.7008C185.629 91.1722 195.724 88.0656 205.722 86.2119C219.813 83.5943 233.612 79.4794 246.863 73.2358C256.897 68.5098 266.744 63.3153 274.939 54.9124C282.851 46.7946 280.773 36.3037 273.622 29.8157C263.2 20.3535 250.629 16.2692 237.873 13.0812C230.996 11.3599 224.109 9.66909 217.179 8.2737C210.266 6.88849 203.309 5.81903 196.352 4.80049C194.655 4.54586 192.878 5.01439 191.914 5.08568C189.784 4.56623 188.299 4.20975 186.822 3.83289C184.577 3.2727 182.049 3.32362 180.016 3.29307C177.01 3.24214 173.96 0.624511 170.654 3.00788C169.408 3.90419 166.968 2.46805 165.058 2.28471C160.179 1.806 155.29 1.39858 150.402 1.02173C145.16 0.624499 139.909 0.105047 134.658 0.00319324C131.502 -0.0579188 128.346 0.777285 125.181 0.868953C122.803 0.940251 120.417 0.247656 118.039 0.288397C114.158 0.349509 110.286 0.84858 106.405 0.930063C103.93 0.980989 101.26 -0.169949 99.0062 0.55321C93.0923 2.4375 87.1342 1.37823 81.2202 1.8162C73.998 2.34584 66.7669 3.07918 59.5889 4.16901C43.509 6.6033 27.3407 8.85426 12.4808 17.1044C9.60779 18.7035 6.82318 20.9137 4.569 23.5008C-2.64441 31.8018 -1.09741 42.8835 7.66299 48.903C19.4378 56.9902 32.3265 61.543 45.6041 64.5884C62.6387 68.4996 79.797 71.7182 96.867 75.446C112.85 78.9396 128.965 80.6202 145.204 80.4979C152.7 80.4368 160.188 79.4386 167.684 78.797C168.488 78.7257 169.257 78.2062 170.044 77.8905C170.071 77.5849 170.097 77.2794 170.124 76.9738H170.133Z" fill="#C7F092"/>
</svg>
